<svg id="patron" xmlns="http://www.w3.org/2000/svg" width="302.599" height="301.757" viewBox="0 0 302.599 301.757">
  <g id="Groupe_41" data-name="Groupe 41" transform="translate(14 14)" opacity="0.1">
    <g id="Calque_1" data-name="Calque 1" transform="translate(0 0)">
      <g id="Tracé_24" data-name="Tracé 24" transform="translate(-10.625 -10.735)" fill="#151515" stroke-miterlimit="10">
        <path d="M 147.9430236816406 291.4925842285156 L 147.7681121826172 291.4924926757812 C 68.38461303710938 291.3989562988281 3.722237348556519 226.9742126464844 3.624945640563965 147.8790435791016 C 3.528487205505371 69.39417266845703 67.24581909179688 4.736880302429199 145.6615753173828 3.747172117233276 L 147.5178680419922 3.735463857650757 C 186.3075256347656 3.735463857650757 222.8281097412109 18.97150611877441 250.3521575927734 46.636962890625 C 277.5450744628906 73.96954345703125 292.4147338867188 109.7378768920898 292.2219848632812 147.3530883789062 C 291.8147888183594 226.8318786621094 227.0915222167969 291.4925842285156 147.9430236816406 291.4925842285156 Z M 147.9175720214844 38.65442276000977 L 147.9175720214844 45.65442276000977 C 91.61436462402344 45.65442276000977 45.74678039550781 91.22029876708984 45.67102813720703 147.2283020019531 C 45.59498596191406 203.5734710693359 91.37061309814453 249.5095825195312 147.7124481201172 249.6275939941406 C 204.2836151123047 249.6284637451172 250.1363983154297 203.8507537841797 250.1444396972656 147.5816650390625 C 250.1524505615234 91.63787841796875 204.51123046875 45.91400527954102 148.4025726318359 45.65554809570312 L 147.9175720214844 38.65442276000977 Z" stroke="none"/>
        <path d="M 147.9430084228516 284.4925842285156 C 223.8823852539062 284.4925842285156 284.8334350585938 223.1727447509766 285.2220764160156 147.3171997070312 C 285.6017150878906 73.22304534912109 223.25 9.768397331237793 145.7499389648438 10.74662399291992 C 71.45651245117188 11.68426704406738 10.53258228302002 72.71905517578125 10.62493991851807 147.8704071044922 C 10.71786785125732 223.3644866943359 71.9927978515625 284.4032592773438 147.7763671875 284.4924926757812 C 147.8320465087891 284.4925537109375 147.8873596191406 284.4925842285156 147.9430084228516 284.4925842285156 M 147.9176483154297 38.65443420410156 C 148.0873565673828 38.65443420410156 148.2649230957031 38.65484237670898 148.4347991943359 38.65562438964844 C 208.5425872802734 38.93247985839844 257.1530151367188 87.640625 257.1444396972656 147.5826263427734 C 257.1358032226562 207.8039093017578 208.0118103027344 256.7526550292969 147.6977996826172 256.6275634765625 C 87.32215118408203 256.5011291503906 38.58958435058594 207.597412109375 38.67101287841797 147.2188415527344 C 38.75221252441406 87.18436431884766 87.64491271972656 38.65443420410156 147.9176483154297 38.65443420410156 M 147.9430084228516 298.4925537109375 L 147.7583618164062 298.4924926757812 C 64.52587127685547 298.3944702148438 -3.272917509078979 230.8334045410156 -3.375060319900513 147.8876190185547 C -3.476203203201294 65.58662414550781 63.34172439575195 -2.214447021484375 145.5733032226562 -3.252232789993286 L 147.5177917480469 -3.26451849937439 C 188.1840057373047 -3.26451849937439 226.4670104980469 12.70419597625732 255.3145751953125 41.69990921020508 C 283.8310241699219 70.36283874511719 299.4242248535156 107.8972702026367 299.2218627929688 147.388916015625 C 298.7950134277344 230.707763671875 230.9315795898438 298.4925537109375 147.9430084228516 298.4925537109375 Z M 147.9176483154297 38.65441131591797 L 147.9176483154297 52.65441131591797 C 95.46900939941406 52.65441131591797 52.74158096313477 95.08433532714844 52.67101287841797 147.2377624511719 C 52.60022354125977 199.7259826660156 95.24222564697266 242.5177001953125 147.7270812988281 242.6275482177734 C 200.4243621826172 242.6284027099609 243.1369323730469 199.9904174804688 243.1444396972656 147.5806274414062 C 243.1518707275391 95.47948455810547 200.6363677978516 52.89619445800781 148.3703002929688 52.65548324584961 L 147.9176483154297 38.65441131591797 Z" stroke="none" fill="#fff"/>
      </g>
    </g>
    <g id="Calque_3" data-name="Calque 3" transform="translate(53.059 74.23)">
      <g id="Groupe_33" data-name="Groupe 33">
        <path id="Tracé_25" data-name="Tracé 25" d="M255.258,150.543c-18.032-15.327-44.851-12.57-61.4,4.464l-6.483,6.662-6.483-6.662c-16.518-17.034-43.37-19.791-61.4-4.464-20.665,17.592-21.751,49.165-3.258,68.233L179.9,284.351a10.335,10.335,0,0,0,14.907,0l63.673-65.575c18.526-19.069,17.44-50.641-3.225-68.233Z" transform="translate(-103.13 -140.489)" fill="#151515"/>
      </g>
    </g>
  </g>
</svg>
