<svg id='citadelle' xmlns="http://www.w3.org/2000/svg" width="123" height="123" viewBox="0 0 123 123">
  <g id="Groupe_46" data-name="Groupe 46" transform="translate(-838 -2319)">
    <rect id="Rectangle_54" data-name="Rectangle 54" width="123" height="123" transform="translate(838 2319)" fill="#666"/>
    <g id="Groupe_45" data-name="Groupe 45" transform="translate(499.515 2021.775)">
      <path id="Tracé_28" data-name="Tracé 28" d="M354.073,375.2c22.854,1.961,87.081,12.974,87.081,12.974L416.329,408.4s-23.821-3.828-40.314-8.247C351.177,390.891,353.814,375.5,354.073,375.2Z" fill="#fff"/>
      <path id="Tracé_29" data-name="Tracé 29" d="M400.091,334.883S381.28,351.9,381.272,352.076a12.269,12.269,0,0,0,4.25,3.933v47.3h29.139v-47.3a12.269,12.269,0,0,0,4.25-3.933C419,351.9,400.091,334.883,400.091,334.883Z" fill="#fff"/>
      <path id="Tracé_30" data-name="Tracé 30" d="M391.936,323.2s.374,3.366.374,7.854c0,0,4.113-2.618,7.853-1.87v-7.854S394.179,319.837,391.936,323.2Z" fill="#fff" style="mix-blend-mode: difference;isolation: isolate"/>
      <rect id="Rectangle_57" data-name="Rectangle 57" width="1.259" height="23.5" rx="0.624" transform="translate(399.675 319.601)" fill="#fff"/>
      <path id="Tracé_31" data-name="Tracé 31" d="M391.936,323.2s.374,3.366.374,7.854c0,0,4.113-2.618,7.853-1.87v-7.854S394.179,319.837,391.936,323.2Z" fill="#666" stroke="#fff" stroke-miterlimit="10" stroke-width="1.122"/>
      <path id="Tracé_32" data-name="Tracé 32" d="M404.9,372.048h3.617v-5.167s0-2.326-1.808-2.326-1.809,2.326-1.809,2.326Z" fill="#666"/>
      <path id="Tracé_33" data-name="Tracé 33" d="M404.9,387.11h3.617v-5.167s0-2.326-1.808-2.326-1.809,2.326-1.809,2.326Z" fill="#666"/>
      <g id="Tracé_34" data-name="Tracé 34" fill="#fff" stroke-miterlimit="10">
        <path d="M 399.7866821289062 416.3085632324219 L 399.7170104980469 416.3085327148438 C 391.9142456054688 416.29931640625 384.3476257324219 414.768798828125 377.2273254394531 411.7594299316406 C 373.8041381835938 410.3126525878906 370.503173828125 408.5228576660156 367.4161071777344 406.4397277832031 C 364.3587036132812 404.3766174316406 361.4838256835938 402.007568359375 358.8714599609375 399.3984375 C 356.2590026855469 396.7892150878906 353.886962890625 393.9178466796875 351.8211669921875 390.8640747070312 C 349.7352905273438 387.7805786132812 347.9430847167969 384.4833984375 346.4943237304688 381.0641174316406 C 343.4807434082031 373.9516906738281 341.9479370117188 366.3933715820312 341.9384460449219 358.59912109375 C 341.9290161132812 350.8477172851562 343.4356689453125 343.3153991699219 346.4165344238281 336.2113647460938 C 347.8470153808594 332.8023071289062 349.6183471679688 329.5101623535156 351.6813659667969 326.4264526367188 C 353.7218933105469 323.3764038085938 356.065673828125 320.503173828125 358.6476440429688 317.8865966796875 C 361.2265625 315.2731323242188 364.0644226074219 312.8940734863281 367.0824279785156 310.8154907226562 C 370.1268920898438 308.7186279296875 373.3812255859375 306.9094848632812 376.7549438476562 305.4382019042969 C 383.7689514160156 302.3794555664062 391.2101440429688 300.7794494628906 398.871826171875 300.6826782226562 C 399.1187744140625 300.6795654296875 399.3692016601562 300.677978515625 399.6159973144531 300.677978515625 C 407.486328125 300.677978515625 415.1288452148438 302.2412109375 422.331298828125 305.3242797851562 C 425.7741088867188 306.7980041503906 429.0964965820312 308.6198425292969 432.2060852050781 310.7391662597656 C 435.2742614746094 312.8302307128906 438.1605834960938 315.2279663085938 440.784912109375 317.8657531738281 C 443.4013671875 320.49560546875 445.7767028808594 323.3834533691406 447.8450012207031 326.4490966796875 C 449.9286804199219 329.5375366210938 451.7164916992188 332.8299865722656 453.1588439941406 336.2349853515625 C 456.1576843261719 343.3146057128906 457.6584777832031 350.7673034667969 457.6195068359375 358.3860168457031 C 457.5793762207031 366.2165222167969 456.0301208496094 373.8048400878906 453.0147094726562 380.9402160644531 C 451.5632629394531 384.3748168945312 449.7708740234375 387.6855163574219 447.6873474121094 390.7803649902344 C 445.6221313476562 393.8480834960938 443.2523193359375 396.7314147949219 440.6437683105469 399.3503112792969 C 438.0332336425781 401.9712219238281 435.1609802246094 404.3499145507812 432.1068420410156 406.4203186035156 C 429.021240234375 408.5120849609375 425.721435546875 410.308349609375 422.2991638183594 411.7591857910156 C 415.1784362792969 414.7779235839844 407.6041564941406 416.3085632324219 399.7866821289062 416.3085632324219 Z M 399.7757873535156 317.0440368652344 C 394.182861328125 317.0440368652344 388.7586975097656 318.1343688964844 383.6539916992188 320.2847595214844 C 378.7213134765625 322.3626708984375 374.2903442382812 325.33837890625 370.4841918945312 329.1292724609375 C 366.677734375 332.9204711914062 363.6879272460938 337.3360290527344 361.597900390625 342.2532653808594 C 359.4345397949219 347.3430786132812 358.3338928222656 352.7542114257812 358.3265380859375 358.3363647460938 C 358.3189392089844 363.9551391601562 359.4053649902344 369.4029846191406 361.5556640625 374.5286865234375 C 363.6330871582031 379.4806213378906 366.6119995117188 383.9288635253906 370.40966796875 387.7498474121094 C 374.2068481445312 391.5703735351562 378.6321411132812 394.5721130371094 383.5625610351562 396.6717529296875 C 388.6650695800781 398.8446655273438 394.09228515625 399.9524841308594 399.6934509277344 399.9644470214844 L 399.7818298339844 399.9645690917969 C 422.6272277832031 399.9647827148438 441.2156372070312 381.3547668457031 441.2184753417969 358.4797058105469 C 441.2193908691406 352.9048156738281 440.1310424804688 347.4955444335938 437.9836730957031 342.4020690917969 C 435.9086303710938 337.4801940917969 432.9363098144531 333.0555419921875 429.1492919921875 329.2510375976562 C 425.3622436523438 325.4464721679688 420.9510803222656 322.4535217285156 416.038330078125 320.3553466796875 C 410.9541625976562 318.1840209960938 405.5491333007812 317.070068359375 399.9732971191406 317.0444946289062 C 399.9086303710938 317.044189453125 399.8402709960938 317.0440368652344 399.7757873535156 317.0440368652344 Z" stroke="none"/>
        <path d="M 399.7866516113281 413.7620544433594 C 430.369384765625 413.7620544433594 454.9161071777344 389.0015258789062 455.072998046875 358.3729858398438 C 455.2259826660156 328.4549865722656 430.1133728027344 302.8326110839844 398.9039916992188 303.22900390625 C 368.9830017089844 303.6069946289062 344.447998046875 328.2520141601562 344.4849853515625 358.5960083007812 C 344.5220031738281 389.0790100097656 369.1990051269531 413.7260131835938 399.7200012207031 413.7620239257812 C 399.742431640625 413.7620239257812 399.7642211914062 413.7620544433594 399.7866516113281 413.7620544433594 M 399.7757873535156 314.4974975585938 C 399.8441467285156 314.4974975585938 399.9165649414062 314.4976806640625 399.9849853515625 314.4979858398438 C 424.1919860839844 314.6090087890625 443.7690124511719 334.2770080566406 443.7650146484375 358.4800109863281 C 443.7620239257812 382.7969970703125 423.9555969238281 402.55908203125 399.68798828125 402.510986328125 C 375.3729858398438 402.4590148925781 355.7470092773438 382.7130126953125 355.7799987792969 358.3330078125 C 355.8119201660156 334.0922241210938 375.5019226074219 314.4974975585938 399.7757873535156 314.4974975585938 M 399.7866516113281 418.8551025390625 L 399.7140197753906 418.8550720214844 C 366.4925842285156 418.8158874511719 339.4322204589844 391.7865600585938 339.3919372558594 358.6022033691406 C 339.351806640625 325.6758117675781 366.0199279785156 298.5509338378906 398.8396301269531 298.1363525390625 C 398.8458557128906 298.1363525390625 398.8530883789062 298.1363525390625 398.8592834472656 298.1363525390625 C 415.8318481445312 298.1363525390625 431.0857543945312 304.5062866210938 442.5901489257812 316.0697021484375 C 454.0050354003906 327.5430908203125 460.2469177246094 342.575927734375 460.166015625 358.3990478515625 C 459.9952087402344 391.7346496582031 432.9091491699219 418.8551025390625 399.7866516113281 418.8551025390625 Z M 399.7757873535156 314.4974975585938 L 399.7757873535156 319.590576171875 C 378.3529052734375 319.590576171875 360.9012145996094 336.973388671875 360.873046875 358.3397216796875 C 360.8439636230469 379.8417663574219 378.2611389160156 397.3721008300781 399.6988830566406 397.4179382324219 C 421.2232666015625 397.418212890625 438.6692810058594 379.950439453125 438.6719360351562 358.4793701171875 C 438.6754455566406 337.1340637207031 421.3100891113281 319.6889038085938 399.9616088867188 319.5910034179688 L 399.7757873535156 314.4974975585938 Z" stroke="none" fill="#666"/>
      </g>
    </g>
  </g>
</svg>
