<svg id='snail' xmlns="http://www.w3.org/2000/svg" width="123" height="123" viewBox="0 0 123 123">
  <rect id="Rectangle_56" data-name="Rectangle 56" width="123" height="123" fill="#0083be"/>
  <path id="wild-animals" d="M87.225,53.046c-.018,0-.027.164,1.127-6.766a2.946,2.946,0,0,0-5.813-.969c-1.183,7.1-1.134,6.911-1.152,6.911a11.28,11.28,0,0,0-3.307.768V38.43a2.946,2.946,0,0,0-5.893,0c0,22.52.055,18.379.055,19.722-.984,1.8-2.1,6.053-5.911,14.163-1.855-7.525-5.644-14.178-12.2-18.181-8.238-5.025-20.409-4.79-28.954-1.613C1.293,61.395-1.42,94.233,21.716,104.611L2.045,110.94a2.946,2.946,0,0,0,.9,5.751H61.441A15.078,15.078,0,0,0,75.876,105.8L84.4,75.97l4.351-2.611a11.4,11.4,0,0,0-1.527-20.312ZM34.2,72.681a9.539,9.539,0,0,0-9.828,11.563c.779,3.117,5.3,7.724,9.329,4.7,2.961-2.219,2.545-4.428.836-5A2.947,2.947,0,1,1,36.4,78.356c5.98,1.995,7.9,10.006.836,15.3C29.717,99.3,20.5,93.044,18.653,85.672c-2.145-8.58,4-18.885,15.544-18.885A19.033,19.033,0,0,1,52.076,93.42c-2.823,2.466-5.617,3.891-8.3,4.158-.417.041-.209,0-4.309,1.319,4.54-2.586,8.274-7.5,8.274-12.67C47.745,79.5,43.092,72.681,34.2,72.681Z" transform="translate(14.478 -14.71)" fill="#fff"/>
</svg>
