<?xml version="1.0" encoding="UTF-8" standalone="no"?>
<!-- Created with Inkscape (http://www.inkscape.org/) -->

<svg
   width="220"
   height="75"
   viewBox="0 0 58.208357 19.843784"
   version="1.1"
   id="svg129"
   inkscape:version="1.1.2 (08b2f3d93c, 2022-04-05)"
   sodipodi:docname="Logo.svg"
   xmlns:inkscape="http://www.inkscape.org/namespaces/inkscape"
   xmlns:sodipodi="http://sodipodi.sourceforge.net/DTD/sodipodi-0.dtd"
   xmlns:xlink="http://www.w3.org/1999/xlink"
   xmlns="http://www.w3.org/2000/svg"
   xmlns:svg="http://www.w3.org/2000/svg">
  <sodipodi:namedview
     id="namedview131"
     pagecolor="#ffffff"
     bordercolor="#666666"
     borderopacity="1.0"
     inkscape:pageshadow="2"
     inkscape:pageopacity="0.0"
     inkscape:pagecheckerboard="0"
     inkscape:document-units="px"
     showgrid="false"
     units="px"
     inkscape:zoom="0.64052329"
     inkscape:cx="579.99452"
     inkscape:cy="561.25984"
     inkscape:window-width="1920"
     inkscape:window-height="1056"
     inkscape:window-x="0"
     inkscape:window-y="0"
     inkscape:window-maximized="1"
     inkscape:current-layer="g294" />
  <defs
     id="defs126">
    <clipPath
       clipPathUnits="userSpaceOnUse"
       id="clipPath298">
      <use
         x="0"
         y="0"
         xlink:href="#g294"
         id="use300"
         transform="translate(-1.2593376,2.6320365)"
         width="100%"
         height="100%" />
    </clipPath>
    <clipPath
       clipPathUnits="userSpaceOnUse"
       id="clipPath1569">
      <use
         x="0"
         y="0"
         xlink:href="#g1565"
         id="use1571"
         width="100%"
         height="100%" />
    </clipPath>
  </defs>
  <g
     inkscape:label="Layer 1"
     inkscape:groupmode="layer"
     id="layer1">
    <g
       inkscape:label="Clip"
       id="g294"
       transform="translate(1.2593376,-2.6320365)">
      <g
         id="g1567"
         clip-path="url(#clipPath1569)"
         style="fill:#0083be;fill-opacity:1"
         transform="matrix(0.21996339,0,0,0.21996339,-3.5824488,-4.1286617)">
        <g
           inkscape:label="Clip"
           id="g1565"
           style="fill:#0083be;fill-opacity:1">
          <path
             d="m 37.517367,37.209971 c -14.32278,2.716389 -23.38917,12.24139 -23.38917,24.553335 0,1.83444 0.14111,3.52778 0.28222,3.77472 0.17639,0.282223 2.25778,0.564453 6.06778,0.811393 3.21028,0.17639 6.59695,0.42333 7.54945,0.52917 l 1.72861,0.14111 -0.24695,-2.363613 c -0.59972,-6.13834 2.50473,-12.065 7.51417,-14.322781 4.51556,-2.010833 10.97139,-1.975555 15.45167,0.105834 8.00805,3.774727 9.38389,13.158607 2.8575,19.79084 -2.39889,2.43416 -3.42195,3.10444 -14.74611,9.34861 -10.93612,5.99722 -14.39334,8.29028 -17.95639,11.81806 -5.60917,5.503326 -8.39612,11.818041 -9.34862,21.237211 l -0.21166,2.04611 h 35.70111 35.66584 l -2.89278,-1.76389 c -3.81,-2.25778 -7.19667,-5.00944 -9.94834,-8.11389 l -2.25777,-2.46944 h -18.06223 c -14.78139,0 -18.0975,-0.0706 -18.0975,-0.45861 0,-0.91723 2.50472,-3.951115 4.51556,-5.538615 1.12889,-0.88194 6.84389,-4.198046 12.7,-7.408326 l 10.68917,-5.82083 -0.24695,-1.41111 c -0.45861,-2.57528 -0.24694,-10.12473 0.35278,-13.335 1.34055,-6.949733 4.40972,-13.581953 8.96056,-19.226398 l 1.23472,-1.552222 -1.905,-1.905 c -3.66889,-3.739445 -8.64306,-6.455834 -14.49917,-7.937501 -3.77472,-0.9525 -13.61722,-1.234722 -17.4625,-0.529167 z"
             id="path46"
             style="fill:#0083be;fill-opacity:1;stroke-width:0.0352778" />
          <path
             d="m 163.24738,37.280527 c -10.44223,1.869722 -18.55612,7.866945 -21.76639,16.051389 l -0.74084,1.86972 1.23473,2.71639 c 1.02305,2.2225 2.11666,5.22111 2.8575,7.937503 0.0706,0.28222 1.55222,0.49389 3.95111,0.635 2.08139,0.14111 4.48027,0.3175 5.29166,0.42334 l 1.48167,0.17638 -0.21167,-2.822223 c -0.52916,-6.94972 3.35139,-12.98222 9.41917,-14.640276 4.445,-1.199445 8.74889,-1.023056 12.98222,0.564444 2.78695,1.058332 6.06778,4.303892 6.94973,6.949722 0.88194,2.71639 0.59972,6.63222 -0.67028,9.136953 -2.18722,4.30389 -4.69195,6.20889 -17.32139,13.12333 -5.04472,2.78694 -10.19528,5.715 -11.46528,6.56167 -10.19528,6.738046 -14.95778,14.463881 -16.08667,26.140821 l -0.24694,2.57528 h 25.92917 25.92917 l 0.42333,-3.81 c 0.21167,-2.08139 0.635,-4.65667 0.91722,-5.715 0.28222,-1.05833 0.52917,-2.15194 0.52917,-2.39889 0,-0.3175 -3.59834,-0.42333 -16.89806,-0.42333 -19.01472,0 -17.56833,0.24694 -15.59278,-2.645835 1.69334,-2.50472 5.15056,-4.83305 15.41639,-10.406936 11.81806,-6.38528 14.53445,-8.11389 17.85056,-11.21834 2.08139,-1.97555 5.92667,-7.02027 5.92667,-7.79638 0,-0.17639 -1.44639,-0.38806 -3.21028,-0.49389 -1.76389,-0.10584 -3.28084,-0.28223 -3.35139,-0.35278 -0.42333,-0.42333 -0.9525,-4.762503 -0.9525,-7.831673 0.0353,-4.51555 0.77611,-7.62 2.82222,-11.747499 l 1.62278,-3.280834 -1.02306,-1.093611 c -3.59833,-3.774723 -10.40694,-7.055556 -17.03916,-8.219723 -3.66889,-0.670278 -11.25362,-0.635 -14.95778,0.03528 z"
             id="path48"
             style="fill:#0083be;fill-opacity:1;stroke-width:0.0352778" />
          <path
             d="m 218.06905,37.456916 c -6.91445,1.446389 -12.24139,4.303889 -16.43945,8.854723 -4.19805,4.515555 -6.52639,11.041947 -6.0325,16.827497 0.10583,1.44639 0.24695,2.681113 0.3175,2.716393 0.0353,0.0706 2.8575,0.28222 6.24417,0.49389 3.38666,0.17639 6.80861,0.42333 7.58472,0.52917 l 1.41111,0.14111 v -3.951113 c 0,-3.70417 0.0706,-4.09222 1.12889,-6.31472 2.15195,-4.58612 5.715,-7.055561 11.25361,-7.761116 7.16139,-0.917222 13.61723,1.799167 16.29834,6.914446 0.81139,1.55222 0.9525,2.2225 0.9525,4.97417 0,3.81 -0.84667,5.961943 -3.4925,8.890003 -2.18723,2.43416 -4.62139,3.98639 -15.5575,9.98361 -5.04473,2.75166 -10.30112,5.82083 -11.71223,6.77333 -6.73805,4.65667 -11.18305,10.159996 -13.335,16.545271 -0.9525,2.71639 -1.94028,8.00806 -1.94028,10.26583 v 1.34056 h 37.39445 37.39445 V 96.123865 77.567759 l 1.5875,-1.41112 c 0.88194,-0.77611 1.5875,-1.5875 1.55222,-1.79916 0,-0.24695 -2.32833,-2.54 -5.18583,-5.11528 -2.8575,-2.57528 -6.10306,-5.503333 -7.19667,-6.561673 l -2.04611,-1.86972 v -6.49111 c -0.0353,-5.468057 -0.10584,-6.38528 -0.49389,-5.891391 -0.3175,0.458611 -0.9525,0.635 -2.11667,0.635 -1.76389,0 -3.66889,0.635 -4.33916,1.446389 -0.28223,0.352778 -0.35278,1.587502 -0.21167,4.056942 l 0.21167,3.59834 1.79916,-0.84667 c 0.98778,-0.45861 2.39889,-0.84667 3.13972,-0.84667 h 1.30528 v 2.39889 2.39889 l -7.05555,6.420563 c -3.88056,3.56305 -7.05556,6.59694 -7.05556,6.77333 0,0.14111 0.70556,0.91722 1.5875,1.69333 l 1.5875,1.41112 v 12.3825 12.382491 h -16.05139 c -8.81944,0 -16.05139,-0.14111 -16.05139,-0.28223 0,-0.70555 2.15195,-3.563045 3.73945,-4.974155 2.11666,-1.86972 2.43416,-2.04611 14.95777,-8.889996 l 10.05417,-5.46806 0.10584,-1.86972 c 0.10583,-1.76389 0.0353,-1.94028 -1.48167,-3.56306 -1.34056,-1.41111 -1.62278,-1.97555 -1.62278,-3.06916 0,-1.48167 -0.3175,-1.16417 10.12472,-10.618623 3.175,-2.8575 5.60917,-5.22111 5.43278,-5.29166 -0.49389,-0.17639 -2.71639,0.84666 -4.48028,2.04611 -0.88194,0.635 -1.65805,1.05833 -1.69333,0.98778 -0.0706,-0.0353 -0.21167,-2.54 -0.3175,-5.53861 l -0.21167,-5.432783 1.12889,-1.093611 c 0.635,-0.599722 1.44639,-1.27 1.79917,-1.481667 0.635,-0.3175 0.59972,-0.458611 -0.67028,-1.869722 -3.70417,-4.092223 -10.44222,-7.478889 -17.42722,-8.678334 -4.26861,-0.740833 -11.7475,-0.635 -15.875,0.211667 z m 38.69972,12.523612 c 0.70556,0.211666 0.77611,0.423333 0.77611,2.822218 v 2.57528 l -1.30528,0.21167 c -0.74083,0.10583 -1.97555,0.45861 -2.71638,0.70555 -0.77612,0.28223 -1.44639,0.49389 -1.48167,0.42334 -0.0353,-0.0353 -0.14111,-1.30528 -0.17639,-2.82222 -0.0706,-2.36362 0.0353,-2.822227 0.59972,-3.210283 1.05834,-0.740833 2.96334,-1.058333 4.30389,-0.705555 z m 7.97278,34.431111 c 0.38806,0.56445 0.56444,1.62278 0.56444,3.52778 v 2.75167 h -1.94027 -1.94028 v -2.75167 c 0,-3.06916 0.56444,-4.30389 1.94028,-4.30389 0.45861,0 1.09361,0.35278 1.37583,0.77611 z m 0,11.994446 c 0.38806,0.52917 0.56444,1.62278 0.56444,3.35139 v 2.575275 h -1.94027 -1.94028 v -2.575275 c 0,-2.89278 0.56444,-4.1275 1.94028,-4.1275 0.45861,0 1.09361,0.35278 1.37583,0.77611 z"
             id="path50"
             style="fill:#0083be;fill-opacity:1;stroke-width:0.0352778" />
          <path
             d="m 97.348481,37.774416 c -19.579164,3.316111 -33.584444,20.49639 -32.631944,40.040283 0.67027,14.46389 8.67833,26.705271 21.55472,32.984711 6.985004,3.42195 13.617224,4.69195 20.672783,3.91584 18.59139,-2.01084 32.73778,-16.051385 34.925,-34.607491 2.29306,-19.826123 -12.02972,-38.664454 -32.03222,-42.156954 -3.13972,-0.564445 -9.70139,-0.635 -12.488339,-0.176389 z m 13.723059,8.113889 c 6.17361,1.552223 13.05278,6.103061 16.89806,11.112501 4.23333,5.53861 6.10305,10.724453 6.38527,17.603613 0.21167,5.22111 -0.21166,8.18445 -1.72861,12.34723 -2.89277,7.972766 -9.77194,15.028321 -17.67416,18.168041 -8.50195,3.38667 -18.732509,2.78695 -26.705283,-1.5875 -15.59278,-8.537215 -20.77862,-28.045821 -11.67695,-43.638604 2.04611,-3.45722 7.44361,-8.74889 10.93611,-10.724447 3.175,-1.763889 8.184454,-3.4925 11.500564,-3.951112 3.280829,-0.458611 8.748889,-0.141111 12.064999,0.670278 z"
             id="path52"
             style="fill:#0083be;fill-opacity:1;stroke-width:0.0352778" />
          <path
             d="m 94.702651,51.850246 c -2.645834,1.19945 -4.727224,4.445 -4.727224,7.44362 0,2.99861 2.08139,6.24416 4.727224,7.443613 3.31611,1.51694 7.972779,0.35277 10.018889,-2.469453 4.05694,-5.57389 0.28222,-13.12333 -6.526389,-13.08805 -1.23472,0 -2.61056,0.28222 -3.4925,0.67027 z"
             id="path54"
             style="fill:#0083be;fill-opacity:1;stroke-width:0.0352778" />
          <path
             d="m 112.90598,68.289699 c -7.12611,2.29306 -7.72583,12.24139 -0.88194,15.38111 3.59833,1.65806 8.255,0.24695 10.26583,-3.13972 1.34056,-2.2225 1.65806,-3.84528 1.16417,-6.13833 -0.98778,-4.58612 -6.10306,-7.54945 -10.54806,-6.10306 z"
             id="path56"
             style="fill:#0083be;fill-opacity:1;stroke-width:0.0352778" />
          <path
             d="m 96.254871,85.187759 c -2.29305,0.59972 -3.915834,1.97555 -5.009444,4.16277 -1.05834,2.08139 -1.23472,4.868336 -0.45861,6.738056 1.23472,2.92806 4.586114,5.185825 7.655274,5.185825 3.069169,0 6.420559,-2.257765 7.655279,-5.185825 0.77611,-1.86972 0.59973,-4.656666 -0.45861,-6.773326 -1.12889,-2.25778 -3.03389,-3.70417 -5.46805,-4.23334 -2.081389,-0.45861 -1.799169,-0.45861 -3.915839,0.10584 z"
             id="path58"
             style="fill:#0083be;fill-opacity:1;stroke-width:0.0352778" />
        </g>
      </g>
    </g>
  </g>
</svg>
