<svg width="216" height="65" viewBox="0 0 216 65" fill="none" xmlns="http://www.w3.org/2000/svg">
  <path d="M20.4102 0.382544C8.50287 2.64083 0.965464 10.5595 0.965464 20.7951C0.965464 22.3202 1.08278 23.728 1.20009 23.9332C1.34673 24.1679 3.07711 24.4025 6.24458 24.6078C8.91346 24.7544 11.729 24.9597 12.5209 25.0477L13.9579 25.165L13.7526 23.2C13.2541 18.0969 15.835 13.1697 19.9996 11.2927C23.7536 9.62099 29.1207 9.65032 32.8454 11.3807C39.503 14.5188 40.6468 22.3202 35.221 27.8339C33.2267 29.8576 32.3762 30.4148 22.9618 35.606C13.87 40.5918 10.9958 42.4981 8.03361 45.431C3.3704 50.0062 1.05345 55.256 0.26158 63.0867L0.0856152 64.7877H29.766H59.417L57.012 63.3213C53.8446 61.4443 51.029 59.1567 48.7414 56.5758L46.8644 54.5228H31.8483C19.5597 54.5228 16.8028 54.4641 16.8028 54.1415C16.8028 53.379 18.8851 50.8567 20.5568 49.5369C21.4953 48.8037 26.2466 46.0469 31.1151 43.378L40.0016 38.5388L39.7963 37.3657C39.415 35.2247 39.591 28.9484 40.0896 26.2795C41.204 20.5018 43.7556 14.9881 47.539 10.2955L48.5655 9.00509L46.9817 7.42136C43.9316 4.31255 39.7963 2.05426 34.9278 0.822471C31.7896 0.0306039 23.607 -0.204023 20.4102 0.382544V0.382544Z" fill="#0083BE"/>
  <path d="M124.937 0.441197C116.255 1.9956 109.51 6.98143 106.841 13.7856L106.225 15.34L107.252 17.5983C108.102 19.446 109.011 21.9389 109.627 24.1972C109.686 24.4318 110.918 24.6078 112.912 24.7251C114.642 24.8424 116.637 24.9891 117.311 25.0771L118.543 25.2237L118.367 22.8774C117.927 17.0997 121.153 12.0846 126.198 10.7061C129.893 9.70897 133.471 9.85562 136.991 11.1754C139.308 12.0552 142.035 14.7535 142.768 16.9531C143.502 19.2114 143.267 22.4668 142.211 24.5492C140.393 28.1272 138.31 29.711 127.811 35.4593C123.617 37.7763 119.335 40.2105 118.279 40.9144C109.803 46.5161 105.844 52.939 104.905 62.6467L104.7 64.7877H126.256H147.813L148.165 61.6202C148.341 59.8899 148.693 57.7489 148.927 56.869C149.162 55.9892 149.367 55.08 149.367 54.8747C149.367 54.6108 146.376 54.5228 135.319 54.5228C119.511 54.5228 120.713 54.7281 122.356 52.3231C123.764 50.2408 126.638 48.3052 135.172 43.6713C144.997 38.3628 147.256 36.9257 150.012 34.3448C151.743 32.7024 154.94 28.5085 154.94 27.8633C154.94 27.7166 153.737 27.5406 152.271 27.4527C150.804 27.3647 149.543 27.218 149.485 27.1594C149.133 26.8074 148.693 23.2 148.693 20.6485C148.722 16.8944 149.338 14.3135 151.039 10.8821L152.388 8.15457L151.537 7.24539C148.546 4.10725 142.886 1.37971 137.372 0.411871C134.322 -0.145368 128.016 -0.116041 124.937 0.4412V0.441197Z" fill="#0083BE"/>
  <path d="M170.513 0.58784C164.765 1.7903 160.336 4.1659 156.846 7.94927C153.356 11.7033 151.42 17.1291 151.831 21.9389C151.919 23.1414 152.036 24.1679 152.095 24.1972C152.124 24.2559 154.47 24.4318 157.286 24.6078C160.101 24.7544 162.946 24.9597 163.591 25.0477L164.765 25.165V21.8803C164.765 18.8008 164.823 18.4782 165.703 16.6305C167.492 12.8178 170.454 10.7648 175.059 10.1782C181.013 9.41569 186.38 11.674 188.609 15.9266C189.283 17.217 189.4 17.7743 189.4 20.0619C189.4 23.2294 188.697 25.0184 186.497 27.4527C184.679 29.4763 182.655 30.7668 173.563 35.7526C169.369 38.0402 164.999 40.5918 163.826 41.3836C158.224 45.255 154.529 49.8302 152.74 55.1387C151.948 57.3969 151.127 61.7962 151.127 63.6732V64.7877H182.215H213.303V49.361V33.9342L214.623 32.7611C215.356 32.1159 215.943 31.4413 215.913 31.2653C215.913 31.06 213.978 29.1537 211.602 27.0127C209.226 24.8718 206.528 22.4375 205.619 21.5576L203.918 20.0032V14.6068C203.889 10.0609 203.83 9.29838 203.507 9.70897C203.243 10.0902 202.716 10.2369 201.748 10.2369C200.281 10.2369 198.698 10.7648 198.14 11.4393C197.906 11.7326 197.847 12.7591 197.964 14.8121L198.14 17.8036L199.636 17.0997C200.457 16.7185 201.63 16.3958 202.246 16.3958H203.331V18.3902V20.3845L197.466 25.7223C194.24 28.6844 191.6 31.2067 191.6 31.3533C191.6 31.4706 192.187 32.1159 192.92 32.7611L194.24 33.9342V44.2285V54.5228H180.895C173.563 54.5228 167.551 54.4055 167.551 54.2881C167.551 53.7016 169.34 51.326 170.66 50.1528C172.419 48.5984 172.683 48.4518 183.095 42.7621L191.453 38.2162L191.541 36.6618C191.629 35.1954 191.571 35.0487 190.31 33.6996C189.195 32.5265 188.961 32.0572 188.961 31.148C188.961 29.9162 188.697 30.1802 197.378 22.3202C200.017 19.9446 202.041 17.9796 201.894 17.9209C201.484 17.7743 199.636 18.6248 198.17 19.622C197.436 20.1499 196.791 20.5018 196.762 20.4432C196.703 20.4138 196.586 18.3315 196.498 15.8386L196.322 11.322L197.26 10.4129C197.788 9.91427 198.463 9.35703 198.756 9.18106C199.284 8.9171 199.255 8.79979 198.199 7.62666C195.119 4.22456 189.518 1.40904 183.711 0.41187C180.162 -0.204026 173.944 -0.116042 170.513 0.58784V0.58784ZM202.686 10.9994C203.273 11.1754 203.331 11.3514 203.331 13.3457V15.4867L202.246 15.6626C201.63 15.7506 200.604 16.0439 199.988 16.2492C199.343 16.4838 198.786 16.6598 198.756 16.6011C198.727 16.5718 198.639 15.516 198.61 14.2549C198.551 12.2899 198.639 11.9086 199.108 11.586C199.988 10.9701 201.572 10.7061 202.686 10.9994V10.9994ZM209.314 39.6239C209.637 40.0932 209.784 40.9731 209.784 42.5568V44.8444H208.171H206.558V42.5568C206.558 40.0052 207.027 38.9787 208.171 38.9787C208.552 38.9787 209.08 39.272 209.314 39.6239V39.6239ZM209.314 49.5956C209.637 50.0355 209.784 50.9447 209.784 52.3818V54.5228H208.171H206.558V52.3818C206.558 49.9769 207.027 48.9504 208.171 48.9504C208.552 48.9504 209.08 49.2437 209.314 49.5956Z" fill="#0083BE"/>
  <path d="M70.1512 0.851797C53.8739 3.60867 42.2305 17.8916 43.0224 34.1395C43.5796 46.1642 50.2372 56.3411 60.942 61.5616C66.7491 64.4064 72.2628 65.4623 78.1285 64.817C93.5846 63.1453 105.345 51.4726 107.164 36.0459C109.07 19.5633 97.1626 3.90195 80.5334 0.998438C77.9232 0.529183 72.4681 0.470528 70.1512 0.851797V0.851797ZM81.5599 7.59733C86.6924 8.88778 92.4114 12.6711 95.6082 16.8358C99.1276 21.4403 100.682 25.7516 100.917 31.4706C101.093 35.8112 100.741 38.2748 99.4796 41.7356C97.0747 48.3638 91.3556 54.2295 84.7861 56.8397C77.7179 59.6552 69.2127 59.1566 62.5844 55.5199C49.6213 48.4225 45.31 32.2039 52.8767 19.2407C54.5778 16.3665 59.065 11.9673 61.9685 10.3249C64.6081 8.85845 68.7727 7.42136 71.5296 7.04009C74.2571 6.65882 78.8031 6.92277 81.5599 7.59733V7.59733Z" fill="#0083BE"/>
  <path d="M67.9515 12.5538C65.7519 13.551 64.0215 16.2492 64.0215 18.7421C64.0215 21.235 65.7519 23.9332 67.9515 24.9304C70.7084 26.1915 74.5798 25.2237 76.2808 22.8774C79.6536 18.2435 76.5154 11.9673 70.8551 11.9966C69.8286 11.9966 68.6848 12.2312 67.9515 12.5538V12.5538Z" fill="#0083BE"/>
  <path d="M83.085 26.2209C77.1607 28.1272 76.6621 36.3978 82.3518 39.0081C85.3433 40.3865 89.2146 39.2134 90.8864 36.3978C92.0008 34.5501 92.2648 33.201 91.8542 31.2947C91.033 27.482 86.7804 25.0184 83.085 26.2209Z" fill="#0083BE"/>
  <path d="M69.242 40.2692C67.3356 40.7677 65.9865 41.9116 65.0774 43.7299C64.1975 45.4603 64.0509 47.7772 64.6961 49.3316C65.7226 51.7659 68.5088 53.6429 71.0604 53.6429C73.6119 53.6429 76.3981 51.7659 77.4246 49.3316C78.0698 47.7772 77.9232 45.4603 77.0434 43.7006C76.1048 41.8236 74.5211 40.6211 72.4974 40.1812C70.7671 39.7999 71.0017 39.7999 69.242 40.2692V40.2692Z" fill="#0083BE"/>
  </svg>
